<?xml version="1.0" encoding="UTF-8"?>
<svg width="24px" height="24px" viewBox="0 0 24 24" version="1.1" xmlns="http://www.w3.org/2000/svg" xmlns:xlink="http://www.w3.org/1999/xlink">
    <!-- Generator: Sketch 57.1 (83088) - https://sketch.com -->
    <title>C-outline</title>
    <desc>Created with Sketch.</desc>
    <g id="C-outline" stroke="none" stroke-width="1" fill="none" fill-rule="evenodd">
        <path d="M17.7114721,2.00014268 L17.7396184,2.00090173 C17.7509909,2.00159882 17.7623304,2.00269869 17.7736132,2.00419649 L17.7114721,2.00014268 C17.7566468,2.00014268 17.7994235,2.005962 17.8394372,2.01672371 C17.8423827,2.01845341 17.8460385,2.01950949 17.8496819,2.02060879 C17.9598386,2.05211863 18.0478343,2.12176378 18.1065968,2.21008319 C18.1113597,2.217195 18.1161146,2.22474991 18.1206821,2.23248541 C18.1314558,2.25087231 18.1408191,2.26938828 18.1489817,2.28841799 C18.1502714,2.29139836 18.1518863,2.29528575 18.153458,2.29920882 L20.0609643,7.06056505 C20.1862753,7.37335573 19.9559367,7.71377015 19.6189784,7.71377015 L13.246,7.713 L10.648,11.999 L13.246,16.284 L19.5904098,16.2840508 C19.6278844,16.2815279 19.6646484,16.2836154 19.7001847,16.2897935 L19.685,16.288 L19.7232017,16.29438 C19.7350629,16.2970938 19.7467213,16.3002278 19.7582068,16.3037953 C19.9022153,16.3434481 20.0040904,16.4461659 20.0560795,16.5696977 C20.0843346,16.6328273 20.0990155,16.7035671 20.095928,16.7772476 C20.0938138,16.8498971 20.0764804,16.9216032 20.0423108,16.9865679 L18.1607326,21.6982084 C18.0988285,21.8533013 17.9612905,21.9626573 17.8005702,21.9907367 L17.718521,21.9978389 L7.56736102,21.9970057 L7.553,21.998 L7.53879814,21.9997274 L7.544,21.998 L7.50469533,22.0005825 C7.49371985,21.9992204 7.48202066,21.9983273 7.47039356,21.997002 C7.40813745,21.9926461 7.35030032,21.974831 7.29846271,21.9470841 C7.22206673,21.9089698 7.16134679,21.8506202 7.1183349,21.7817101 L7.161,21.836 L7.11415193,21.7745777 C7.09976437,21.7521177 7.08726773,21.7283237 7.0768933,21.7033782 L2.0739739,12.2536035 L2.04735371,12.2035592 L2.038,12.181 L2.03520252,12.1741281 L2.02307315,12.1440375 C2.01258997,12.1121538 2.00546172,12.0789599 2.00212156,12.0449163 L2.0029519,12.0384878 C2.00032235,12.0213407 1.99997907,12.0116306 1.99995041,12.0018683 C2.00121654,11.9900333 2.00166531,11.9769616 2.00265141,11.9639784 C2.00368119,11.9403658 2.00598921,11.9249473 2.009124,11.9094806 L2.006,11.933 L2.01388598,11.8840776 C2.02594444,11.8314504 2.04722906,11.7805487 2.07827186,11.734045 L7.09872911,2.25350029 L7.10545299,2.24080173 C7.11576282,2.22243792 7.12726292,2.2047236 7.13989736,2.18780799 L7.132,2.199 L7.155886,2.16862237 L7.155886,2.16862237 C7.16739305,2.15366975 7.18084721,2.13932189 7.19521181,2.12582686 C7.20200867,2.12101471 7.20730942,2.11634416 7.21269823,2.11180661 C7.28537664,2.04814545 7.38052211,2.00676385 7.49189791,2.00086923 L17.682,2 L17.7114721,2.00014268 Z M7.563,21.997 L7.55,21.997 L7.544,21.998 L7.553,21.998 L7.563,21.997 Z M18.7685006,17.6067014 L10.0297348,21.0455676 L17.3959046,21.0455676 L18.7685006,17.6067014 Z M9.47068297,12.4751264 L3.26891202,12.4751264 L7.374,20.23 L9.47068297,12.4751264 Z M10.262,13.198 L9.218,17.058 L8.405,20.07 L8.388,20.131 L11.276,17.612 L12.3634839,16.6647179 L10.262,13.198 Z M17.1087757,17.2364826 L13.157,17.236 L11.306,18.85 L9.909,20.069 L16.168,17.606 L17.1087757,17.2364826 Z M19.6189784,16.2842114 L19.685,16.288 L19.6725345,16.2868069 L19.6189784,16.2842114 Z M11.7735244,8.30670346 L4.68102641,11.5228551 L9.82435471,11.5228551 L11.7735244,8.30670346 Z M7.659,3.23 L3.55124384,10.9895617 L12.1072563,7.10976728 L12.008,7.023 L7.659,3.23 Z M17.5387276,3.32540526 L14.1228972,6.76149891 L18.9153039,6.76149891 L17.5387276,3.32540526 Z M16.5667694,2.95241392 L8.78974286,2.95241392 L12.955011,6.58559794 L16.5667694,2.95241392 Z" id="Combined-Shape" fill="#000000" fill-rule="nonzero"></path>
    </g>
</svg>